Coordinates
version=1
nRows=7
nColumns=40
inDegrees=yes

Units are S.I. units (second, meters, Newtons, ...)
Angles are in degrees.

endheader
time	pelvis_tilt	pelvis_list	pelvis_rotation	pelvis_tx	pelvis_ty	pelvis_tz	hip_flexion_r	hip_adduction_r	hip_rotation_r	knee_angle_r	knee_angle_r_beta	ankle_angle_r	subtalar_angle_r	mtp_angle_r	hip_flexion_l	hip_adduction_l	hip_rotation_l	knee_angle_l	knee_angle_l_beta	ankle_angle_l	subtalar_angle_l	mtp_angle_l	lumbar_extension	lumbar_bending	lumbar_rotation	arm_flex_r	arm_add_r	arm_rot_r	elbow_flex_r	pro_sup_r	wrist_flex_r	wrist_dev_r	arm_flex_l	arm_add_l	arm_rot_l	elbow_flex_l	pro_sup_l	wrist_flex_l	wrist_dev_l
     32.79750000	     -2.96199195	     -5.88174776	     -2.28345374	      1.07996819	      0.90853901	      0.49824855	     26.35303704	      1.98575013	     -9.08280028	     29.18206510	     29.18206510	      6.95486166	     -6.34699637	     -0.87186747	     -2.84256319	    -12.04899280	     -9.47117543	     36.59847096	     36.59847096	     10.61249091	    -14.59855460	    -17.90616237	     -9.22600306	      8.26847638	      1.55767866	    -15.50439337	    -11.32936038	    -12.34304176	     19.66494156	     47.31223156	      0.00000000	      0.00000000	     23.88401419	    -13.74955920	     -5.30095188	     92.30267362	     48.01055205	      0.00000000	      0.00000000
     32.80885714	     -2.99811331	     -6.01108742	     -1.98648987	      1.08031441	      0.91014148	      0.50071183	     25.50796412	      2.27206811	     -9.19927422	     28.80193382	     28.80193382	      7.42679376	     -6.46596477	     -0.89661292	     -0.78620311	    -12.85369022	     -8.49293065	     40.79359797	     40.79359797	      8.01896688	    -15.75716182	    -17.70649192	     -9.18320533	      8.23845401	      1.44651216	    -14.14286373	    -11.32385487	    -12.19159021	     20.39287064	     47.27570468	      0.00000000	      0.00000000	     22.63883756	    -13.46542042	     -5.05080868	     90.83706401	     47.96870972	      0.00000000	      0.00000000
     32.82021429	     -2.94152005	     -6.19221105	     -1.67534993	      1.08046798	      0.91178190	      0.50307351	     24.55146618	      2.58479486	     -9.43829135	     28.39212900	     28.39212900	      7.87670461	     -6.46987647	     -0.93425993	      1.30338324	    -13.66443243	     -7.41270622	     44.96962582	     44.96962582	      5.31041929	    -16.65100737	    -17.16343465	     -9.28774754	      8.28935073	      1.46306225	    -12.63030853	    -11.35368746	    -12.06827763	     21.15761646	     47.24240756	      0.00000000	      0.00000000	     21.55755630	    -13.02430112	     -4.76489594	     89.40377834	     47.92168097	      0.00000000	      0.00000000
     32.83157143	     -3.03917198	     -6.14846594	     -1.37281200	      1.08029385	      0.91322699	      0.50512366	     23.79354641	      2.65290142	     -9.58290671	     27.98165560	     27.98165560	      8.33550247	     -6.39291202	     -0.94917190	      3.79310394	    -13.96353873	     -5.90872508	     49.25544459	     49.25544459	      3.52798194	    -17.17860184	    -13.73942847	     -9.10846287	      8.14527044	      1.67507729	    -11.54223305	    -11.43109050	    -11.30275328	     22.67193749	     47.09473999	      0.00000000	      0.00000000	     21.04217808	    -12.28934710	     -4.65208941	     85.50032179	     47.86168756	      0.00000000	      0.00000000
     32.84292857	     -3.06728309	     -6.35284143	     -1.03855743	      1.07989532	      0.91453885	      0.50724750	     22.93324245	      2.95715231	     -9.96157402	     27.50680318	     27.50680318	      8.68271029	     -6.25708314	     -0.96098516	      6.21944056	    -14.59247491	     -4.55032269	     53.17914836	     53.17914836	      1.11130584	    -17.63846808	    -12.58479689	     -9.15317454	      8.18602457	      1.63577642	     -9.88305857	    -11.54140770	    -11.15742571	     23.66520508	     47.05002706	      0.00000000	      0.00000000	     19.86514464	    -11.92274590	     -4.22504001	     83.95754292	     47.80233839	      0.00000000	      0.00000000
     32.85428571	     -3.15886091	     -6.28854101	     -0.71985643	      1.07915609	      0.91573258	      0.50896211	     22.24042718	      2.92496210	    -10.29835067	     27.18692927	     27.18692927	      9.18650623	     -5.87766695	     -0.90339294	      9.00739871	    -14.57619100	     -2.87814532	     57.35124015	     57.35124015	      1.64716026	    -16.85145994	     -4.51061885	     -9.04907221	      8.02483878	      2.14204043	     -9.28728037	    -11.89004366	     -9.32869355	     26.78412875	     46.72246647	      0.00000000	      0.00000000	     19.79483904	    -11.22109156	     -3.39716834	     79.26923825	     47.69560511	      0.00000000	      0.00000000
     32.86564286	     -3.21356491	     -6.44554774	     -0.35929797	      1.07826490	      0.91681399	      0.51078832	     21.44045304	      3.15645997	    -10.71645445	     26.70828202	     26.70828202	      9.55282232	     -5.62693944	     -0.93067081	     11.47439295	    -14.91616199	     -1.50878923	     60.50572699	     60.50572699	     -0.13690677	    -17.20169102	     -3.57260171	     -9.08037425	      8.02564809	      1.91210867	     -7.33398641	    -12.04688231	     -9.16598711	     27.94637047	     46.67307513	      0.00000000	      0.00000000	     18.56719351	    -11.05847180	     -3.14457101	     77.22905391	     47.63843073	      0.00000000	      0.00000000
